<svg width="35" height="30" viewBox="0 0 35 30" fill="none" xmlns="http://www.w3.org/2000/svg">
<path id="Arrow 2" d="M2 13C0.895431 13 9.65645e-08 13.8954 0 15C-9.65645e-08 16.1046 0.89543 17 2 17L2 13ZM34.4142 16.4142C35.1953 15.6332 35.1953 14.3668 34.4142 13.5858L21.6863 0.857866C20.9052 0.0768173 19.6389 0.0768171 18.8579 0.857866C18.0768 1.63891 18.0768 2.90524 18.8579 3.68629L30.1716 15L18.8579 26.3137C18.0768 27.0948 18.0768 28.3611 18.8579 29.1421C19.6389 29.9232 20.9052 29.9232 21.6863 29.1421L34.4142 16.4142ZM2 17L33 17L33 13L2 13L2 17Z" fill="url(#paint0_linear_9888_2139)"/>
<defs>
<linearGradient id="paint0_linear_9888_2139" x1="2" y1="9.5" x2="1.08548" y2="20.5716" gradientUnits="userSpaceOnUse">
<stop stop-color="#0026FF"/>
<stop offset="1" stop-color="#C1A4FF"/>
</linearGradient>
</defs>
</svg>
