<svg width="35" height="30" viewBox="0 0 35 30" fill="none" xmlns="http://www.w3.org/2000/svg">
<path id="Arrow 2" d="M33 13C34.1046 13 35 13.8954 35 15C35 16.1046 34.1046 17 33 17L33 13ZM0.585785 16.4142C-0.195263 15.6332 -0.195263 14.3668 0.585785 13.5858L13.3137 0.857866C14.0948 0.0768173 15.3611 0.0768171 16.1421 0.857866C16.9232 1.63891 16.9232 2.90524 16.1421 3.68629L4.82843 15L16.1421 26.3137C16.9232 27.0948 16.9232 28.3611 16.1421 29.1421C15.3611 29.9232 14.0948 29.9232 13.3137 29.1421L0.585785 16.4142ZM33 17L2 17L2 13L33 13L33 17Z" fill="url(#paint0_linear_9888_2160)"/>
<defs>
<linearGradient id="paint0_linear_9888_2160" x1="33" y1="9.5" x2="33.9145" y2="20.5716" gradientUnits="userSpaceOnUse">
<stop stop-color="#0026FF"/>
<stop offset="1" stop-color="#C1A4FF"/>
</linearGradient>
</defs>
</svg>
