<svg width="95" height="93" viewBox="0 0 95 93" fill="none" xmlns="http://www.w3.org/2000/svg">
<circle cx="47.4064" cy="46.6102" r="46.6102" fill="#191939"/>
<path d="M67.9152 58.1244C66.4232 58.496 65.5003 58.1407 64.6723 56.9231L58.7838 48.9443L57.9327 47.8396L51.056 56.9494C50.2702 58.0453 49.446 58.5223 47.9797 58.1345L56.7855 46.558L48.5872 36.1012C49.9972 35.8326 50.9714 35.9694 51.8366 37.2059L57.9442 45.2838L64.0968 37.2498C64.8851 36.1539 65.7323 35.7372 67.1474 36.1414L63.9686 40.2688L59.6618 45.7608C59.1491 46.3885 59.2196 46.8178 59.6913 47.4241L67.9152 58.1244ZM26.9085 46.3646L27.6289 42.895C29.59 36.0284 37.6268 33.1751 43.1692 37.418C46.4082 39.9136 47.2132 43.4435 47.053 47.3978H28.7953C28.521 54.5154 33.7519 58.8111 40.421 56.6193C42.7603 55.8498 44.1382 54.0559 44.8278 51.8114C45.1777 50.6867 45.7571 50.5109 46.8363 50.8323C46.2852 53.6392 45.0418 55.9841 42.4142 57.4516C38.4881 59.6484 32.8842 58.9379 29.9361 55.8849C28.18 54.1137 27.4545 51.8692 27.129 49.469C27.0777 49.0724 26.9752 48.6945 26.8983 48.3141C26.9051 47.6647 26.9085 47.0153 26.9085 46.3659V46.3646ZM28.8286 45.8876H45.3277C45.22 40.7408 41.9476 37.0854 37.4755 37.054C32.5663 37.0163 29.0414 40.5852 28.8286 45.8876Z" fill="white"/>
</svg>
