<svg width="94" height="93" viewBox="0 0 94 93" fill="none" xmlns="http://www.w3.org/2000/svg">
<circle cx="46.9797" cy="46.6102" r="46.6102" fill="#191939"/>
<path d="M27.4406 48.6686C26.3037 47.5318 26.3037 45.6886 27.4406 44.5518L44.9215 27.0709C46.0583 25.9341 47.9015 25.9341 49.0383 27.0709L66.5192 44.5518C67.656 45.6886 67.656 47.5318 66.5192 48.6686L49.0383 66.1495C47.9015 67.2863 46.0583 67.2863 44.9215 66.1495L27.4406 48.6686Z" fill="#EE513B"/>
<path d="M41.3708 30.6775L39.6006 32.4477L44.1726 37.0198C43.9876 37.4165 43.8844 37.8591 43.8844 38.3258C43.8844 39.6506 44.7168 40.7811 45.8871 41.2226V52.407C44.7168 52.8485 43.8844 53.9789 43.8844 55.3038C43.8844 57.0132 45.2701 58.399 46.9796 58.399C48.689 58.399 50.0748 57.0132 50.0748 55.3038C50.0748 54.1027 49.3906 53.0613 48.3907 52.5483V41.2379L52.7611 45.6083C52.5852 45.9971 52.4873 46.4286 52.4873 46.8831C52.4873 48.5925 53.8731 49.9783 55.5825 49.9783C57.2919 49.9783 58.6777 48.5925 58.6777 46.8831C58.6777 45.1737 57.2919 43.7879 55.5825 43.7879C55.2502 43.7879 54.9304 43.8402 54.6303 43.937L49.9365 39.2432C50.0264 38.9534 50.0748 38.6452 50.0748 38.3258C50.0748 36.6163 48.689 35.2305 46.9796 35.2305C46.6601 35.2305 46.3521 35.2789 46.0621 35.3688L41.3708 30.6775Z" fill="white"/>
</svg>
