<svg width="94" height="93" viewBox="0 0 94 93" fill="none" xmlns="http://www.w3.org/2000/svg">
<circle cx="47.1219" cy="46.6102" r="46.6102" fill="#191939"/>
<g clip-path="url(#clip0_9888_1701)">
<path fill-rule="evenodd" clip-rule="evenodd" d="M47.1206 23.7906C34.2518 23.7906 23.817 34.2654 23.817 47.1896C23.817 57.5254 30.4939 66.2951 39.7562 69.3894C40.9214 69.6044 41.3467 68.8819 41.3467 68.2619C41.3467 67.7062 41.3263 66.2351 41.3147 64.2829C34.8315 65.697 33.4638 61.1462 33.4638 61.1462C32.4049 58.4438 30.8769 57.7243 30.8769 57.7243C28.7606 56.2722 31.0371 56.3014 31.0371 56.3014C33.3749 56.4666 34.6057 58.7128 34.6057 58.7128C36.6857 62.2883 40.0606 61.2558 41.389 60.6563C41.6002 59.1442 42.2032 58.1133 42.8689 57.5284C37.6937 56.9376 32.2534 54.9312 32.2534 45.9656C32.2534 43.4109 33.1608 41.3227 34.6524 39.6863C34.412 39.0941 33.6124 36.7163 34.8796 33.4948C34.8796 33.4948 36.8372 32.8659 41.2885 35.893C43.1485 35.3738 45.1411 35.115 47.1235 35.1048C49.103 35.115 51.097 35.3738 52.9585 35.893C57.4069 32.8659 59.3601 33.4948 59.3601 33.4948C60.6317 36.7163 59.832 39.0941 59.5917 39.6863C61.0861 41.3227 61.9878 43.4109 61.9878 45.9656C61.9878 54.9532 56.5388 56.9317 51.3475 57.5108C52.1836 58.2332 52.9294 59.6604 52.9294 61.8437C52.9294 64.9717 52.9002 67.4942 52.9002 68.2619C52.9002 68.8878 53.3198 69.616 54.5025 69.3864C63.7561 66.2863 70.4271 57.5225 70.4271 47.1896C70.4271 34.2654 59.9922 23.7906 47.1206 23.7906Z" fill="#3E75C3"/>
</g>
<defs>
<clipPath id="clip0_9888_1701">
<rect width="46.6102" height="46.6102" fill="white" transform="translate(23.8167 23.3051)"/>
</clipPath>
</defs>
</svg>
