<svg width="94" height="93" viewBox="0 0 94 93" fill="none" xmlns="http://www.w3.org/2000/svg">
<circle cx="46.8375" cy="46.6102" r="46.6102" fill="#191939"/>
<path d="M36.6415 43.26C38.0009 37.8222 41.3996 35.1033 46.8374 35.1033C54.9942 35.1033 56.0138 41.2209 60.0922 42.2405C62.8111 42.9202 65.1902 41.9006 67.2294 39.1817C65.8699 44.6195 62.4713 47.3384 57.0334 47.3384C48.8766 47.3384 47.857 41.2209 43.7787 40.2013C41.0597 39.5215 38.6807 40.5411 36.6415 43.26ZM26.4455 55.4952C27.805 50.0574 31.2036 47.3384 36.6415 47.3384C44.7983 47.3384 45.8178 53.456 49.8962 54.4756C52.6152 55.1554 54.9942 54.1358 57.0334 51.4168C55.674 56.8547 52.2753 59.5736 46.8374 59.5736C38.6807 59.5736 37.6611 53.456 33.5827 52.4364C30.8638 51.7567 28.4847 52.7763 26.4455 55.4952Z" fill="#44A8B3"/>
</svg>
