<svg width="94" height="94" viewBox="0 0 94 94" fill="none" xmlns="http://www.w3.org/2000/svg">
<circle cx="46.6102" cy="46.6102" r="46.6102" fill="#191939"/>
<path d="M50.5122 46.575C50.5122 44.4857 48.7654 42.7917 46.6103 42.7917C44.4554 42.7917 42.7083 44.4857 42.7083 46.575C42.7083 48.6646 44.4554 50.3585 46.6103 50.3585C48.7654 50.3585 50.5122 48.6646 50.5122 46.575Z" fill="#53C1DE"/>
<path fill-rule="evenodd" clip-rule="evenodd" d="M59.2828 39.5512C60.1068 36.3046 61.1425 30.2842 57.4912 28.2431C53.8569 26.2109 49.1276 30.105 46.6303 32.4424C44.1403 30.1283 39.2781 26.2508 35.6299 28.2984C31.9971 30.3375 33.1173 36.2581 33.9596 39.525C30.5708 40.4582 24.7615 42.4683 24.7615 46.5751C24.7615 50.6702 30.5647 52.8571 33.9335 53.7895C33.0881 57.0745 32.0239 62.9105 35.6614 64.945C39.3233 66.9922 44.1703 63.207 46.6907 60.8441C49.2041 63.1952 53.8879 67.0052 57.5229 64.965C61.1693 62.9184 60.2196 56.9786 59.3773 53.6927C62.6429 52.7584 68.4586 50.6191 68.4586 46.5751C68.4586 42.5078 62.6182 40.4814 59.2828 39.5512ZM58.8688 51.9514C58.3158 50.2539 57.5693 48.4488 56.6561 46.5841C57.5278 44.7634 58.2453 42.9816 58.7829 41.295C61.228 41.9824 66.592 43.5533 66.592 46.5751C66.592 49.6253 61.4446 51.211 58.8688 51.9514ZM56.5875 63.3986C53.8754 64.9207 49.8467 61.2772 47.9906 59.5458C49.222 58.24 50.4525 56.722 51.6534 55.0363C53.766 54.8546 55.7617 54.5575 57.5716 54.1519C58.1644 56.4761 59.3116 61.8696 56.5875 63.3986ZM36.5941 63.3769C33.8817 61.8604 35.1215 56.6526 35.7434 54.2328C37.5332 54.6168 39.5145 54.893 41.6321 55.0594C42.8409 56.7089 44.1071 58.225 45.383 59.5528C43.8066 61.0314 39.3192 64.9003 36.5941 63.3769ZM26.6281 46.5751C26.6281 43.5135 31.96 41.954 34.4609 41.2684C35.0078 42.9928 35.725 44.7959 36.5907 46.6192C35.7138 48.4696 34.9863 50.3013 34.4344 52.0461C32.0497 51.3842 26.6281 49.6385 26.6281 46.5751ZM36.5651 29.8648C39.2886 28.3363 43.5144 32.0588 45.3223 33.7343C44.0529 35.056 42.7984 36.5607 41.5999 38.2007C39.5448 38.3854 37.5775 38.6819 35.7689 39.0793C35.0904 36.4444 33.8446 31.3917 36.5651 29.8648ZM52.9888 40.1679C54.383 40.3385 55.7188 40.5654 56.9731 40.8431C56.5966 42.0133 56.1273 43.2369 55.5745 44.4913C54.7732 43.0173 53.9131 41.5728 52.9888 40.1679ZM46.6309 35.0277C47.4919 35.932 48.3541 36.9419 49.2025 38.0376C47.4818 37.9586 45.7584 37.9583 44.0378 38.0364C44.8868 36.9509 45.7565 35.9425 46.6309 35.0277ZM37.6616 44.49C37.118 43.24 36.6529 42.0109 36.2731 40.824C37.5199 40.5535 38.8495 40.3324 40.2347 40.1646C39.3077 41.5664 38.449 43.0103 37.6616 44.49ZM40.2744 53.1148C38.8435 52.9599 37.4938 52.7501 36.2474 52.487C36.6332 51.2792 37.1085 50.0237 37.6638 48.7467C38.462 50.2418 39.3338 51.6997 40.2744 53.1148ZM46.6826 58.2503C45.7979 57.3247 44.9153 56.3009 44.0535 55.1997C45.7839 55.2655 47.5176 55.2657 49.2479 55.1908C48.397 56.3121 47.5377 57.3374 46.6826 58.2503ZM55.5923 48.6817C56.1764 49.9725 56.6687 51.2212 57.0598 52.4086C55.7927 52.689 54.4248 52.9148 52.9836 53.0824C53.9147 51.6509 54.7885 50.184 55.5923 48.6817ZM50.6117 53.3018C47.9648 53.4852 45.3015 53.4831 42.6537 53.3168C41.1492 51.186 39.8099 48.9451 38.6538 46.6186C39.8044 44.297 41.1339 42.0604 42.6313 39.933C45.2809 39.7388 47.9469 39.7382 50.5965 39.9342C52.0811 42.0615 53.4086 44.2922 54.5858 46.5929C53.4226 48.9133 52.086 51.1544 50.6117 53.3018ZM56.5588 29.811C59.2831 31.3345 58.0705 36.7452 57.4753 39.0981C55.6625 38.6924 53.6938 38.3906 51.6327 38.203C50.4319 36.5454 49.1879 35.038 47.939 33.7334C49.7701 32.0218 53.861 28.3024 56.5588 29.811Z" fill="#53C1DE"/>
</svg>
