<svg width="94" height="93" viewBox="0 0 94 93" fill="none" xmlns="http://www.w3.org/2000/svg">
<circle cx="47.2642" cy="46.6102" r="46.6102" fill="#191939"/>
<g clip-path="url(#clip0_9888_1707)">
<path d="M47.2649 69.8287C46.6238 69.8287 46.0254 69.6578 45.4698 69.3586L39.7852 65.982C38.9304 65.5119 39.3578 65.3409 39.6142 65.2554C40.7682 64.8708 40.9819 64.7853 42.1787 64.1014C42.3069 64.0159 42.4779 64.0587 42.6061 64.1442L46.9657 66.7514C47.1367 66.8369 47.3504 66.8369 47.4786 66.7514L64.5323 56.8782C64.7033 56.7927 64.7887 56.6217 64.7887 56.408V36.7044C64.7887 36.4907 64.7033 36.3197 64.5323 36.2342L47.4786 26.4038C47.3076 26.3183 47.0939 26.3183 46.9657 26.4038L29.912 36.2342C29.741 36.3197 29.6556 36.5334 29.6556 36.7044V56.408C29.6556 56.579 29.741 56.7927 29.912 56.8782L34.5708 59.5709C37.0925 60.8531 38.6739 59.3572 38.6739 57.8612V38.414C38.6739 38.1576 38.8876 37.9011 39.1868 37.9011H41.3666C41.6231 37.9011 41.8795 38.1148 41.8795 38.414V57.8612C41.8795 61.2378 40.0416 63.2039 36.8361 63.2039C35.853 63.2039 35.0837 63.2039 32.9039 62.1353L28.4161 59.5709C27.3048 58.9298 26.6209 57.733 26.6209 56.4508V36.7471C26.6209 35.4649 27.3048 34.2681 28.4161 33.627L45.4698 23.7538C46.5383 23.1555 47.9915 23.1555 49.06 23.7538L66.1137 33.627C67.225 34.2681 67.9088 35.4649 67.9088 36.7471V56.4508C67.9088 57.733 67.225 58.9298 66.1137 59.5709L49.06 69.4441C48.5044 69.7005 47.8633 69.8287 47.2649 69.8287ZM52.522 56.2798C45.0424 56.2798 43.5037 52.8605 43.5037 49.9541C43.5037 49.6977 43.7174 49.4412 44.0166 49.4412H46.2391C46.4956 49.4412 46.7093 49.6122 46.7093 49.8686C47.0512 52.1339 48.0342 53.2452 52.5648 53.2452C56.155 53.2452 57.6937 52.4331 57.6937 50.5098C57.6937 49.3985 57.2663 48.5864 51.6672 48.0308C47.0084 47.5606 44.1021 46.5348 44.1021 42.8164C44.1021 39.3543 47.0084 37.3028 51.8809 37.3028C57.3518 37.3028 60.0445 39.1834 60.3864 43.2865C60.3864 43.4147 60.3437 43.543 60.2582 43.6712C60.1727 43.7567 60.0445 43.8421 59.9163 43.8421H57.6937C57.48 43.8421 57.2663 43.6712 57.2236 43.4575C56.7107 41.1067 55.3857 40.3374 51.8809 40.3374C47.9487 40.3374 47.4786 41.7051 47.4786 42.7309C47.4786 43.9704 48.0342 44.355 53.3341 45.0389C58.5913 45.7228 61.0703 46.7058 61.0703 50.3815C61.0275 54.1428 57.9502 56.2798 52.522 56.2798Z" fill="#539E43"/>
</g>
<defs>
<clipPath id="clip0_9888_1707">
<rect width="46.6102" height="46.6102" fill="white" transform="translate(23.9591 23.3051)"/>
</clipPath>
</defs>
</svg>
