<svg width="95" height="94" viewBox="0 0 95 94" fill="none" xmlns="http://www.w3.org/2000/svg">
<circle cx="47.4341" cy="46.6102" r="46.6102" fill="#191939"/>
<g clip-path="url(#clip0_9888_1666)">
<path d="M30.5929 65.1814L26.8604 23.3051H67.9174L64.185 65.1814L47.3434 69.9152" fill="#E34F26"/>
<path d="M47.4345 66.2738L60.9988 62.5413L64.185 26.6733H47.4345" fill="#EF652A"/>
<path d="M47.4345 42.2405H40.6068L40.1516 36.9604H47.4345V31.8624H34.5074L35.873 47.4295H47.4345V42.2405ZM47.3434 55.6227L41.6082 54.0751L41.2441 49.9785H36.1461L36.7833 58.0806L47.3434 60.9938V55.6227Z" fill="#EBEBEB"/>
<path d="M47.3434 42.2405V47.4295H53.7159L53.0787 54.0751L47.3434 55.6227V60.9938L57.9036 58.0806L59.3601 42.2405H47.3434ZM47.3434 31.8624V36.9604H59.8153L60.2705 31.8624H47.3434Z" fill="white"/>
</g>
<defs>
<clipPath id="clip0_9888_1666">
<rect width="46.6102" height="46.6102" fill="white" transform="translate(24.1293 23.3051)"/>
</clipPath>
</defs>
</svg>
