<svg width="95" height="94" viewBox="0 0 95 94" fill="none" xmlns="http://www.w3.org/2000/svg">
<circle cx="47.5222" cy="46.6102" r="46.6102" fill="#191939"/>
<g clip-path="url(#clip0_9888_1656)">
<path d="M45.9957 23.3176C45.8954 23.3267 45.5765 23.3586 45.2895 23.3814C38.6693 23.9782 32.4682 27.5497 28.5408 33.0391C26.3538 36.0914 24.955 39.5536 24.4265 43.2208C24.2397 44.5009 24.2169 44.879 24.2169 46.6147C24.2169 48.3504 24.2397 48.7285 24.4265 50.0086C25.6931 58.7598 31.9215 66.1125 40.3687 68.8367C41.8814 69.3241 43.4761 69.6567 45.2895 69.8571C45.9957 69.9346 49.0483 69.9346 49.7546 69.8571C52.8847 69.5109 55.5364 68.7365 58.1517 67.4017C58.5526 67.1967 58.6301 67.142 58.5754 67.0965C58.539 67.0691 56.8304 64.7777 54.7801 62.0079L51.0531 56.974L46.3829 50.0633C43.8132 46.2639 41.6992 43.157 41.6809 43.157C41.6627 43.1525 41.6445 46.2229 41.6354 49.9721C41.6217 56.5367 41.6171 56.8009 41.5351 56.9558C41.4167 57.179 41.3255 57.2701 41.1342 57.3704C40.9884 57.4433 40.8608 57.4569 40.1728 57.4569H39.3846L39.175 57.3248C39.0383 57.2383 38.9381 57.1244 38.8697 56.9923L38.7741 56.7873L38.7832 47.6534L38.7968 38.5149L38.9381 38.3373C39.011 38.2416 39.1659 38.1186 39.2752 38.0594C39.462 37.9683 39.5349 37.9591 40.3232 37.9591C41.2526 37.9591 41.4076 37.9956 41.649 38.2598C41.7174 38.3327 44.2461 42.1411 47.2714 46.7286C50.2967 51.316 54.4338 57.5799 56.4659 60.6549L60.1564 66.2446L60.3432 66.1216C61.9971 65.0465 63.7467 63.5158 65.1318 61.9214C68.0797 58.5366 69.9796 54.4093 70.6175 50.0086C70.8043 48.7285 70.8271 48.3504 70.8271 46.6147C70.8271 44.879 70.8043 44.5009 70.6175 43.2208C69.3509 34.4696 63.1225 27.1169 54.6753 24.3927C53.1854 23.9098 51.5998 23.5773 49.8229 23.3768C49.3855 23.3313 46.3738 23.2812 45.9957 23.3176ZM55.5364 37.4125C55.7551 37.5218 55.9328 37.7314 55.9966 37.95C56.033 38.0685 56.0421 40.6014 56.033 46.3095L56.0194 54.5004L54.575 52.2864L53.1262 50.0724V44.1183C53.1262 40.2688 53.1444 38.1049 53.1717 38.0001C53.2446 37.745 53.4041 37.5446 53.6228 37.4261C53.8096 37.3305 53.8779 37.3214 54.5933 37.3214C55.2676 37.3214 55.386 37.3305 55.5364 37.4125Z" fill="white"/>
</g>
<defs>
<clipPath id="clip0_9888_1656">
<rect width="46.6102" height="46.6102" fill="white" transform="translate(24.2169 23.3051)"/>
</clipPath>
</defs>
</svg>
