<svg width="95" height="94" viewBox="0 0 95 94" fill="none" xmlns="http://www.w3.org/2000/svg">
<circle cx="47.5662" cy="46.6102" r="46.6102" fill="#191939"/>
<path d="M55.9953 54.7029C57.6078 54.5388 58.8312 53.1721 58.7756 51.5318C58.7201 49.8919 57.3298 48.5798 55.6616 48.5798H55.5504C53.8264 48.6344 52.4921 50.0559 52.5477 51.7506C52.6034 52.5707 52.9369 53.2813 53.4374 53.7734C51.5468 57.4363 48.6552 60.1151 44.318 62.3566C41.3708 63.8873 38.3125 64.4341 35.2543 64.0515C32.7519 63.7235 30.8057 62.6302 29.5822 60.8258C27.8029 58.147 27.6361 55.2494 29.1375 52.352C30.1941 50.2745 31.8621 48.7437 32.9187 47.9783C32.6963 47.2676 32.3626 46.0649 32.1958 45.1902C24.1329 50.9306 24.967 58.6938 27.4137 62.3566C29.2486 65.0902 32.9743 66.785 37.0892 66.785C38.2012 66.785 39.3134 66.6755 40.4256 66.4024C47.5433 65.0355 52.9371 60.8805 55.9953 54.7029ZM65.7821 47.9238C61.556 43.0581 55.328 40.3793 48.2104 40.3793H47.3208C46.8204 39.3953 45.7638 38.7391 44.596 38.7391H44.4848C42.761 38.7939 41.4267 40.2152 41.4822 41.91C41.5378 43.5501 42.9278 44.8622 44.596 44.8622H44.7072C45.9305 44.8076 46.9871 44.0422 47.432 43.0034H48.4328C52.659 43.0034 56.6625 44.206 60.2771 46.5569C63.0573 48.361 65.0592 50.7119 66.1713 53.5547C67.1166 55.8509 67.061 58.0924 66.06 60.0059C64.5031 62.9033 61.8897 64.4887 58.442 64.4887C56.2177 64.4887 54.1048 63.8327 52.9926 63.3407C52.381 63.8873 51.2687 64.762 50.4902 65.3089C52.8814 66.4022 55.328 67.0037 57.6635 67.0037C63.0017 67.0037 66.9498 64.106 68.4513 61.2086C70.0637 58.0376 69.9524 52.5707 65.7821 47.9238ZM37.534 55.6321C37.5897 57.2722 38.9798 58.5841 40.648 58.5841H40.7593C42.483 58.5296 43.8175 57.1082 43.7619 55.4135C43.7064 53.7732 42.3161 52.4613 40.648 52.4613H40.5369C40.4256 52.4613 40.2587 52.4613 40.1477 52.5158C37.8677 48.7983 36.9224 44.7528 37.2561 40.3792C37.4784 37.099 38.5906 34.256 40.5369 31.9052C42.1493 29.8824 45.2633 28.8983 47.3765 28.8438C53.2706 28.7344 55.7727 35.9508 55.9396 38.8483C56.6625 39.0124 57.8859 39.3951 58.7201 39.6685C58.0527 30.8121 52.4921 26.2197 47.1541 26.2197C42.1493 26.2197 37.534 29.7733 35.6989 35.0216C33.1411 42.0193 34.8093 48.7437 37.9232 54.0468C37.6453 54.4294 37.4784 55.0307 37.534 55.6321Z" fill="#764ABC"/>
</svg>
