<svg width="94" height="93" viewBox="0 0 94 93" fill="none" xmlns="http://www.w3.org/2000/svg">
<circle cx="47.5485" cy="46.6102" r="46.6102" fill="#191939"/>
<g clip-path="url(#clip0_9888_1716)">
<path d="M47.5485 69.9152C60.4196 69.9152 70.8536 59.4812 70.8536 46.6101C70.8536 33.7391 60.4196 23.3051 47.5485 23.3051C34.6775 23.3051 24.2434 33.7391 24.2434 46.6101C24.2434 59.4812 34.6775 69.9152 47.5485 69.9152Z" fill="#13AA52"/>
<path d="M53.7784 43.7626C52.3063 37.2658 48.8274 35.1297 48.4528 34.3136C48.0431 33.7378 47.628 32.7136 47.628 32.7136C47.6212 32.6963 47.6103 32.6658 47.5975 32.6362C47.5552 33.212 47.5333 33.4342 46.9889 34.015C46.146 34.6741 41.8209 38.3032 41.469 45.6843C41.1408 52.5685 46.4418 56.6705 47.1587 57.1935L47.2402 57.2513V57.2463C47.2448 57.2809 47.4678 58.8849 47.6244 60.5846H48.1861C48.3178 59.3832 48.5154 58.1899 48.7778 57.0101L48.8233 56.9805C49.144 56.7506 49.4497 56.5005 49.7387 56.2317L49.7714 56.2021C51.2954 54.7943 54.0351 51.5379 54.0082 46.3462C54.0026 45.4801 53.9257 44.616 53.7784 43.7626ZM47.5647 53.3067C47.5647 53.3067 47.5647 43.6515 47.8834 43.6533C48.1319 43.6533 48.4537 56.1075 48.4537 56.1075C48.0113 56.0542 47.5647 54.0578 47.5647 53.3067Z" fill="white"/>
</g>
<defs>
<clipPath id="clip0_9888_1716">
<rect width="46.6102" height="46.6102" fill="white" transform="translate(24.2434 23.3051)"/>
</clipPath>
</defs>
</svg>
