<svg width="94" height="94" viewBox="0 0 94 94" fill="none" xmlns="http://www.w3.org/2000/svg">
<circle cx="47.3901" cy="46.6102" r="46.6102" fill="#191939"/>
<g clip-path="url(#clip0_9888_1673)">
<path d="M30.6393 65.1814L26.8158 23.3051H67.8728L64.1404 65.1814L47.3898 69.9152" fill="#264DE4"/>
<path d="M47.3898 26.6733V66.2738L60.9541 62.5413L64.1404 26.6733" fill="#2965F1"/>
<path d="M34.4628 31.8624H47.3898V36.9604H34.918M35.3731 42.2405H47.3898V47.4295H35.8283M36.1014 49.9785H41.1994L41.5636 54.0751L47.3898 55.6227V60.9938L36.7387 58.0806" fill="#EBEBEB"/>
<path d="M47.3898 42.2405V47.4295H53.6713L53.034 54.0751L47.3898 55.6227V60.9938L57.8589 58.0806L60.2258 31.8624H47.3898V36.9604H54.6727L54.172 42.2405H47.3898Z" fill="white"/>
</g>
<defs>
<clipPath id="clip0_9888_1673">
<rect width="46.6102" height="46.6102" fill="white" transform="translate(24.0849 23.3051)"/>
</clipPath>
</defs>
</svg>
