<svg width="95" height="94" viewBox="0 0 95 94" fill="none" xmlns="http://www.w3.org/2000/svg">
<circle cx="47.4781" cy="46.6102" r="46.6102" fill="#191939"/>
<g clip-path="url(#clip0_9888_1661)">
<path d="M63.7917 23.3051H31.1646C27.3033 23.3051 24.1731 26.4353 24.1731 30.2966V62.9237C24.1731 66.785 27.3033 69.9152 31.1646 69.9152H63.7917C67.6531 69.9152 70.7833 66.785 70.7833 62.9237V30.2966C70.7833 26.4353 67.6531 23.3051 63.7917 23.3051Z" fill="#3178C6"/>
<path d="M45.3843 49.1591H51.2106V45.4267H34.9152V49.1591H40.7415V65.8186H45.3843V49.1591ZM53.0313 64.9083C53.7687 65.2906 54.6699 65.5728 55.6713 65.764C56.6727 65.9552 57.7651 66.0462 58.8576 66.0462C59.95 66.0462 60.9514 65.9461 61.9528 65.7367C62.9542 65.5273 63.7735 65.1814 64.5018 64.7353C65.2391 64.2528 65.8673 63.6429 66.2314 62.8236C66.5956 62.0043 66.8778 61.0939 66.8778 59.9104C66.8778 59.082 66.7503 58.3628 66.5045 57.7256C66.2587 57.0883 65.9037 56.5421 65.4121 56.0869C64.9478 55.6045 64.4107 55.1766 63.7735 54.8124C63.1362 54.4483 62.4079 54.066 61.5886 53.72C60.9878 53.4742 60.4962 53.2375 59.95 53.0008C59.4766 52.7642 59.0669 52.5275 58.7665 52.2908C58.4297 52.045 58.1748 51.7901 57.9927 51.5261C57.8106 51.253 57.7196 50.9525 57.7196 50.6157C57.7196 50.3062 57.8006 50.024 57.9654 49.7691C58.1302 49.5142 58.3569 49.3048 58.6482 49.1227C58.9395 48.9407 59.3036 48.8041 59.7406 48.704C60.1685 48.6038 60.6419 48.5583 61.1972 48.5583C61.5795 48.5583 61.9801 48.5865 62.3806 48.6439C62.7994 48.7012 63.2273 48.7895 63.6551 48.9079C64.083 49.0262 64.5018 49.1719 64.9296 49.354C65.3302 49.536 65.7034 49.7454 66.022 49.9821V45.7034C65.3302 45.4394 64.5655 45.2392 63.7462 45.1117C62.9268 44.9843 62.0165 44.9205 60.9241 44.9205C59.8316 44.9205 58.8302 45.0389 57.8289 45.2665C56.8275 45.4941 56.0081 45.8582 55.2799 46.3589C54.5425 46.8505 54.0054 47.4513 53.5502 48.2706C53.1223 49.0353 52.9129 49.9093 52.9129 51.0017C52.9129 52.3672 53.3044 53.5507 54.0964 54.4611C54.8793 55.4624 56.0992 56.1907 57.6468 56.919C58.2749 57.1739 58.8302 57.4288 59.3765 57.6746C59.9227 57.9204 60.3778 58.1753 60.742 58.4393C61.1334 58.7033 61.443 58.9946 61.6523 59.3041C61.8799 59.6137 61.9983 59.9778 61.9983 60.3966C61.9983 60.6879 61.9273 60.961 61.7889 61.2159C61.6505 61.4708 61.4339 61.6893 61.1425 61.8713C60.8512 62.0534 60.4962 62.1991 60.0501 62.3083C59.6223 62.4084 59.1398 62.4631 58.5025 62.4631C57.5011 62.4631 56.4997 62.2901 55.5894 61.9442C54.588 61.5982 53.6776 61.0793 53.0313 60.5386V64.9083Z" fill="white"/>
</g>
<defs>
<clipPath id="clip0_9888_1661">
<rect width="46.6102" height="46.6102" fill="white" transform="translate(24.1731 23.3051)"/>
</clipPath>
</defs>
</svg>
