<svg width="21" height="20" viewBox="0 0 21 20" fill="none" xmlns="http://www.w3.org/2000/svg">
<path d="M13.5083 10C13.5083 11.6583 12.1583 13.0083 10.5 13.0083C8.84167 13.0083 7.49167 11.6583 7.49167 10C7.49167 8.34167 8.84167 6.99167 10.5 6.99167C12.1583 6.99167 13.5083 8.34167 13.5083 10ZM10.5 0C4.98583 0 0.5 4.48583 0.5 10C0.5 15.5142 4.98583 20 10.5 20C12.52 20 14.4675 19.3983 16.1333 18.2608L16.1617 18.2408L14.8142 16.675L14.7917 16.6892C13.5122 17.5135 12.0221 17.9513 10.5 17.95C6.11667 17.95 2.55 14.3833 2.55 10C2.55 5.61667 6.11667 2.05 10.5 2.05C14.8833 2.05 18.45 5.61667 18.45 10C18.4488 10.5745 18.386 11.1472 18.2625 11.7083C18.0117 12.7408 17.2883 13.0567 16.7458 13.015C16.2008 12.9708 15.5625 12.5817 15.5575 11.6308V10C15.5562 8.659 15.0229 7.37328 14.0748 6.42497C13.1266 5.47666 11.841 4.94321 10.5 4.94167C9.15885 4.94299 7.87301 5.47635 6.92468 6.42468C5.97635 7.37301 5.44299 8.65885 5.44167 10C5.44299 11.3411 5.97635 12.627 6.92468 13.5753C7.87301 14.5237 9.15885 15.057 10.5 15.0583C11.1665 15.06 11.8267 14.9287 12.442 14.6723C13.0572 14.4159 13.6152 14.0395 14.0833 13.565C14.3792 14.0296 14.7884 14.4114 15.2723 14.6746C15.7563 14.9377 16.2992 15.0735 16.85 15.0692C17.5783 15.0692 18.3 14.8258 18.8808 14.385C19.48 13.9292 19.9275 13.2717 20.175 12.4808C20.2142 12.3525 20.2875 12.0608 20.2875 12.0583L20.2892 12.0475C20.435 11.4142 20.5 10.7808 20.5 10C20.5 4.48583 16.0142 0 10.5 0Z" fill="#CBCBFF"/>
</svg>
